<?xml version="1.0" encoding="utf-8"?>
<!-- Generator: Adobe Illustrator 17.1.0, SVG Export Plug-In . SVG Version: 6.00 Build 0)  -->
<!DOCTYPE svg PUBLIC "-//W3C//DTD SVG 1.1//EN" "http://www.w3.org/Graphics/SVG/1.1/DTD/svg11.dtd">
<svg version="1.1" id="Layer_2" xmlns="http://www.w3.org/2000/svg" xmlns:xlink="http://www.w3.org/1999/xlink" x="0px" y="0px"
	 viewBox="0 0 567.8 76" enable-background="new 0 0 567.8 76" xml:space="preserve" width="568" height="76">
<path fill="#FFFFFF" d="M105.7,70.5h-11V6.7h15.4c12.3,0,18.6,5.2,18.6,18.8c0,10.3-4,14.4-7.7,16.1l9.3,28.9h-11.1L111.3,44
	c-1.4,0.2-3.7,0.3-5.7,0.3V70.5 M105.7,35.3h3.9c5.9,0,8.1-2.2,8.1-9.8c0-7.6-2.2-9.8-8.1-9.8h-3.9V35.3z"/>
<polyline fill="#FFFFFF" points="135.9,70.5 135.9,6.7 165.3,6.7 165.3,16.2 146.9,16.2 146.9,32.6 161,32.6 161,42.2 146.9,42.2 
	146.9,60.9 165.3,60.9 165.3,70.5 135.9,70.5 135.9,70.5 "/>
<polyline fill="#FFFFFF" points="198.9,6.7 209.7,6.7 196.4,70.5 185.4,70.5 172,6.7 182.8,6.7 190.8,50.9 191,50.9 198.9,6.7 "/>
<polyline fill="#FFFFFF" points="217,70.5 217,6.7 246.3,6.7 246.3,16.2 228,16.2 228,32.6 242.1,32.6 242.1,42.2 228,42.2 
	228,60.9 246.3,60.9 246.3,70.5 217,70.5 217,70.5 "/>
<path fill="#FFFFFF" d="M264.5,70.5h-11V6.7H269c12.3,0,18.6,5.2,18.6,18.8c0,10.3-4,14.4-7.7,16.1l9.3,28.9H278L270.2,44
	c-1.4,0.2-3.7,0.3-5.7,0.3V70.5L264.5,70.5 M264.5,35.3h3.9c5.9,0,8.1-2.2,8.1-9.8c0-7.6-2.2-9.8-8.1-9.8h-3.9V35.3z"/>
<path fill="#FFFFFF" d="M294.8,6.7h16.3c11.8,0,17,6,17,16.9c0,5.5-2.3,11.2-7.6,13.3c5.6,2.5,8.8,6.9,8.8,15.1
	c0,10.5-4.7,18.5-17.1,18.5h-17.3V6.7 M305.2,32.8h4c4.2,0,7.3-2.8,7.3-8.1c0-5.9-2.3-9-7.2-9h-4.2L305.2,32.8z M305.2,61.5h4.6
	c5.8,0,8-3.4,8-9.8c0-6.5-2.5-9.8-9-9.8h-3.5L305.2,61.5z"/>
<polyline fill="#BCBEC0" points="337,70.5 337,6.7 347.2,6.7 360.5,43.2 360.7,43.2 360.7,6.7 370.6,6.7 370.6,70.5 361,70.5 
	347.1,30.6 346.9,30.6 346.9,70.5 337,70.5 "/>
<path fill="#BCBEC0" d="M387.1,70.5h-10.6l11.8-63.8h13.6l11.8,63.8H403l-1.9-14.1h-12L387.1,70.5 M390.7,46.8h8.8l-4.3-27.4H395
	L390.7,46.8z"/>
<polyline fill="#BCBEC0" points="422.5,16.2 411.9,16.2 411.9,6.7 444,6.7 444,16.2 433.4,16.2 433.4,70.5 422.5,70.5 422.5,16.2 
	"/>
<rect x="451.3" y="6.7" fill="#BCBEC0" width="11" height="63.8"/>
<path fill="#BCBEC0" d="M469.6,22.1c0-9,5.3-16.3,16.8-16.3c11.5,0,16.8,7.3,16.8,16.3V55c0,9-5.3,16.3-16.8,16.3
	c-11.5,0-16.8-7.3-16.8-16.3V22.1 M480.5,54.7c0,4.8,1.4,7.1,5.8,7.1c4.4,0,5.8-2.3,5.8-7.1V22.4c0-4.8-1.4-7.1-5.8-7.1
	c-4.4,0-5.8,2.3-5.8,7.1V54.7z"/>
<polyline fill="#BCBEC0" points="510.4,70.5 510.4,6.7 520.6,6.7 533.9,43.2 534.1,43.2 534.1,6.7 544,6.7 544,70.5 534.4,70.5 
	520.5,30.6 520.3,30.6 520.3,70.5 510.4,70.5 "/>
<polyline fill="#E43526" points="79.8,29.1 49.4,29 39.8,0 39.8,0 30.4,29 0,29.1 0.1,29.1 24.6,46.9 24.6,46.9 24.6,46.9 15.1,76 
	15.2,76 40,58.1 64.6,76 55.1,47 79.8,29.1 "/>
<g>
	<path fill="#FFFFFF" d="M554.1,10.7c0-0.9,0.2-1.8,0.5-2.7c0.4-0.8,0.9-1.6,1.5-2.2c0.6-0.6,1.3-1.1,2.2-1.5
		c0.8-0.4,1.7-0.5,2.7-0.5c1,0,1.8,0.2,2.7,0.5c0.8,0.4,1.6,0.9,2.2,1.5c0.6,0.6,1.1,1.3,1.5,2.2s0.5,1.7,0.5,2.7
		c0,1-0.2,1.8-0.5,2.7s-0.9,1.6-1.5,2.2c-0.6,0.6-1.3,1.1-2.2,1.5c-0.8,0.4-1.7,0.5-2.7,0.5c-0.9,0-1.8-0.2-2.7-0.5
		c-0.8-0.4-1.6-0.9-2.2-1.5c-0.6-0.6-1.1-1.3-1.5-2.2C554.3,12.6,554.1,11.7,554.1,10.7z M566.5,10.7c0-0.8-0.1-1.5-0.4-2.2
		c-0.3-0.7-0.7-1.3-1.2-1.8s-1.1-0.9-1.7-1.2c-0.7-0.3-1.4-0.4-2.1-0.4c-0.8,0-1.5,0.1-2.1,0.4c-0.7,0.3-1.3,0.7-1.7,1.2
		s-0.9,1.1-1.2,1.8c-0.3,0.7-0.4,1.4-0.4,2.2c0,0.8,0.1,1.5,0.4,2.2c0.3,0.7,0.7,1.3,1.2,1.8c0.5,0.5,1.1,0.9,1.7,1.2
		c0.7,0.3,1.4,0.4,2.1,0.4c0.8,0,1.5-0.1,2.1-0.4c0.7-0.3,1.3-0.7,1.7-1.2c0.5-0.5,0.9-1.1,1.2-1.8S566.5,11.5,566.5,10.7z
		 M558.4,6.7h3c1.8,0,2.8,0.8,2.8,2.3c0,0.4-0.1,0.7-0.2,1c-0.1,0.3-0.3,0.5-0.4,0.7c-0.2,0.2-0.4,0.3-0.7,0.4
		c-0.2,0.1-0.5,0.2-0.8,0.2l2.3,3.5h-1.5l-2.3-3.5h-1v3.5h-1.3V6.7z M559.6,10.1h1.4c0.6,0,1.1-0.1,1.4-0.3s0.5-0.5,0.5-0.9
		c0-0.4-0.1-0.6-0.4-0.8c-0.3-0.2-0.6-0.3-1.1-0.3h-1.8V10.1z"/>
</g>
</svg>
